<svg aria-hidden="true" style="width:0;height:0;position:absolute;overflow:hidden" xmlns="http://www.w3.org/2000/svg"><defs><symbol id="icon-gg_menu-left" viewBox="0 0 32 32"><path fill="#fff" style="fill:var(--color1,#fff)" d="M2.667 7.993c0-.733.595-1.327 1.327-1.327h10.68a1.326 1.326 0 0 1 0 2.654H3.994a1.326 1.326 0 0 1-1.327-1.327zm0 8.007c0-.733.595-1.327 1.327-1.327h24.013a1.326 1.326 0 0 1 0 2.654H3.994A1.326 1.326 0 0 1 2.667 16zm1.326 6.68a1.326 1.326 0 0 0 0 2.654h16.013a1.326 1.326 0 0 0 0-2.654H3.993z"/></symbol><symbol id="icon-x" viewBox="0 0 32 32"><path fill="none" stroke="#fff" style="stroke:var(--color1,#fff)" stroke-linejoin="round" stroke-linecap="round" stroke-width="1.733" d="M24 8 8 24M8 8l16 16"/></symbol></defs><symbol id="icon-button-prev-2" viewBox="0 0 32 32"><path fill="none" stroke="#fff" style="stroke:var(--color1,#fff)" stroke-width=".941" d="M8.471.471H23.53a8 8 0 0 1 8 8V23.53a8 8 0 0 1-8 8H8.471a8 8 0 0 1-8-8V8.471a8 8 0 0 1 8-8z"/><path fill="none" stroke="#fff" style="stroke:var(--color1,#fff)" stroke-linejoin="round" stroke-linecap="round" stroke-width=".941" d="M18.118 20.235 13.883 16l4.235-4.235"/></symbol><symbol id="icon-button-next" viewBox="0 0 32 32"><path fill="none" stroke="#fff" style="stroke:var(--color1,#fff)" stroke-width=".941" d="M8.471.471H23.53a8 8 0 0 1 8 8V23.53a8 8 0 0 1-8 8H8.471a8 8 0 0 1-8-8V8.471a8 8 0 0 1 8-8z"/><path fill="none" stroke="#fff" style="stroke:var(--color1,#fff)" stroke-linejoin="round" stroke-linecap="round" stroke-width=".941" d="M13.882 20.235 18.117 16l-4.235-4.235"/></symbol></svg>